<?xml version="1.0" encoding="UTF-8"?>
<!DOCTYPE svg PUBLIC "-//W3C//DTD SVG 1.1//EN" "http://www.w3.org/Graphics/SVG/1.1/DTD/svg11.dtd">
<!-- Creator: CorelDRAW -->
<svg xmlns="http://www.w3.org/2000/svg" xml:space="preserve" width="0.984366in" height="0.293024in" version="1.1" style="shape-rendering:geometricPrecision; text-rendering:geometricPrecision; image-rendering:optimizeQuality; fill-rule:evenodd; clip-rule:evenodd"
viewBox="0 0 980.17 291.77"
 xmlns:xlink="http://www.w3.org/1999/xlink"
 xmlns:xodm="http://www.corel.com/coreldraw/odm/2003">
 <defs>
  <style type="text/css">
   <![CDATA[
    .str1 {stroke:#2D2A2B;stroke-width:6.92;stroke-miterlimit:2.61313}
    .str0 {stroke:#ED282E;stroke-width:6.92;stroke-miterlimit:2.61313}
    .fil3 {fill:#EC168E}
    .fil0 {fill:#ED282E}
    .fil2 {fill:white;fill-rule:nonzero}
    .fil1 {fill:#2D2A2B;fill-rule:nonzero}
   ]]>
  </style>
 </defs>
 <g id="Layer_x0020_1">
  <metadata id="CorelCorpID_0Corel-Layer"/>
  <g id="logoair.cdr">
   <g>
    <polygon class="fil0 str0" points="122.64,3.46 122.64,277.2 3.46,277.2 3.46,3.46 "/>
    <polygon class="fil0 str0" points="122.64,3.46 122.64,277.2 3.46,277.2 3.46,3.46 "/>
   </g>
   <g>
    <polygon class="fil0 str0" points="491.72,14.9 491.72,288.32 976.71,288.32 976.71,14.9 "/>
    <polygon class="fil0 str0" points="491.72,14.9 491.72,288.32 976.71,288.32 976.71,14.9 "/>
   </g>
   <path class="fil1" d="M180.63 190.92l38.19 0 -4.69 -84.81 -33.5 84.81zm-52.1 83.49l0 -11.95c5.06,-0.51 9.46,-2.9 13.21,-7.11 3.75,-4.21 7.74,-11.7 11.98,-22.4l84.17 -209.95 9.67 0 14.57 239.27 18.44 0 0 12.14 -76.31 0 0 -12.14 18.07 0 -3.25 -58.07 -43.42 0 -17.94 44.8c-0.5,1.07 -0.87,2.2 -1.16,3.4 -0.29,1.2 -0.41,2.27 -0.41,3.21 0,1.95 0.54,3.59 1.61,4.78 1.11,1.26 2.47,1.89 4.07,1.89l10.12 0 0 12.14 -43.42 0zm192.08 -212.15c0,-7.24 1.65,-13.47 4.94,-18.62 3.29,-5.16 7.33,-7.74 12.06,-7.74 4.74,0 8.81,2.58 12.23,7.8 3.41,5.22 5.14,11.45 5.14,18.56 0,7.11 -1.73,13.21 -5.14,18.31 -3.42,5.1 -7.49,7.68 -12.23,7.68 -4.73,0 -8.77,-2.52 -12.06,-7.55 -3.29,-5.03 -4.94,-11.2 -4.94,-18.43zm-22.43 170.31l14.57 -94 -17.12 0 0 -10.51c8.19,-0.25 16.67,-0.82 25.36,-1.76 8.68,-0.94 17.49,-2.14 26.5,-3.59l-18.19 121.49c-0.41,2.58 -0.7,4.97 -0.91,7.17 -0.2,2.2 -0.33,3.78 -0.33,4.59 0,2.07 0.29,3.58 0.91,4.53 0.62,0.94 1.6,1.38 2.96,1.38 3.12,0 6.54,-3.59 10.21,-10.69 3.66,-7.11 7.61,-17.74 11.85,-31.9l5.19 3.34c-5.14,19.57 -10.91,33.53 -17.29,42.02 -6.38,8.5 -14.28,12.71 -23.71,12.71 -7,0 -12.39,-2.26 -16.14,-6.86 -3.78,-4.53 -5.68,-11.01 -5.68,-19.5 0,-2.08 0.16,-4.78 0.5,-8.12 0.29,-3.33 0.74,-6.73 1.31,-10.32zm100.43 41.84l-32.8 0 20.74 -135.84 -16.3 0 0 -10.69c8.02,-0.13 16.34,-0.63 24.86,-1.51 8.52,-0.82 17.25,-2.08 26.26,-3.65l-6.5 43.29c7.61,-16.93 13.71,-28.38 18.27,-34.35 4.53,-5.98 9.1,-8.93 13.67,-8.93 3.87,0 7.08,2.07 9.67,6.23 2.6,4.21 3.87,9.69 3.87,16.42 0,6.29 -1.36,11.45 -4.08,15.41 -2.67,3.96 -5.97,5.97 -9.79,5.97 -3.54,0 -6.42,-2.27 -8.64,-6.73 -2.18,-4.47 -3.99,-6.73 -5.35,-6.73 -3.95,0 -8.44,5.91 -13.46,17.81 -5.02,11.89 -8.77,25.92 -11.27,42.09l-9.14 61.22z"/>
   <path class="fil2" d="M535.88 233.14l14.81 -95.7 -12.43 0 0 -10.69 14.86 0 6.13 -41.84c0.49,0 1.27,0.06 2.31,0.19 4.32,0.38 7.28,0.56 8.81,0.56 3.13,0 6.46,-0.25 10,-0.76 3.54,-0.44 7.41,-1.2 11.56,-2.2l-6.75 44.04 14.57 0 0 10.69 -16.26 0 -16.75 110.6c-0.08,0.51 -0.25,1.45 -0.45,2.77 -0.2,1.32 -0.29,2.39 -0.29,3.14 0,1.95 0.33,3.46 1.03,4.53 0.7,1 1.65,1.51 2.84,1.51 3.54,0 7.24,-3.46 11.07,-10.38 3.87,-6.99 7.53,-16.67 10.99,-29.19l5.19 3.46c-3.79,16.86 -9.22,29.95 -16.3,39.19 -7.04,9.25 -15.06,13.91 -23.99,13.91 -7.29,0 -12.92,-2.2 -16.88,-6.61 -3.91,-4.47 -5.88,-10.76 -5.88,-19 0,-1.7 0.16,-4.21 0.45,-7.55 0.33,-3.33 0.78,-6.86 1.36,-10.69zm117.79 -33.03c0.62,0 2.02,0.19 4.16,0.57 2.14,0.38 3.83,0.56 5.02,0.56 9.55,0 16.83,-4.21 21.86,-12.65 5.02,-8.37 7.53,-20.57 7.53,-36.55 0,-6.86 -1.11,-11.96 -3.29,-15.29 -2.22,-3.34 -5.6,-5.03 -10.08,-5.03 -5.23,0 -9.55,4.28 -12.96,12.83 -3.41,8.56 -7.49,27.05 -12.23,55.55zm-1.19 9.06c-1.44,9 -2.59,17.12 -3.46,24.41 -0.86,7.3 -1.27,12.71 -1.27,16.3 0,6.42 1.11,11.07 3.33,14.03 2.22,2.96 5.72,4.4 10.54,4.4 8.6,0 17.2,-3.71 25.76,-11.2 8.56,-7.49 16.42,-18.19 23.58,-32.09l4.2 5.16c-8.52,16.67 -17.29,29.06 -26.3,37.12 -9.01,8.06 -18.6,12.08 -28.81,12.08 -13.83,0 -24.98,-5.54 -33.46,-16.67 -8.48,-11.14 -12.72,-25.48 -12.72,-43.04 0,-11.2 1.73,-22.4 5.15,-33.66 3.41,-11.26 8.19,-21.52 14.4,-30.89 6.92,-10.32 14.69,-18.31 23.34,-23.91 8.64,-5.66 17.41,-8.49 26.34,-8.49 10.46,0 18.85,3.71 25.19,11.14 6.38,7.42 9.55,17.05 9.55,28.88 0,14.98 -4.45,26.74 -13.29,35.36 -8.85,8.62 -20.99,12.9 -36.51,12.9 -2.35,0 -6.09,-0.44 -11.24,-1.26 -1.85,-0.25 -3.29,-0.44 -4.32,-0.57zm84.7 19.88l28.81 -190.57 -15.76 0 0 -10.51 5.19 0c6.66,0 13.71,-0.31 21.07,-0.94 7.41,-0.56 15.43,-1.57 24.12,-2.96l-33 217.69c-0.42,2.58 -0.7,4.78 -0.87,6.48 -0.16,1.7 -0.25,3.27 -0.25,4.59 0,2.33 0.41,4.21 1.19,5.54 0.82,1.32 1.85,2.01 3.05,2.01 3.45,0 7.08,-3.52 10.9,-10.51 3.83,-6.99 7.41,-16.8 10.78,-29.44l5.43 3.46c-4.65,17.93 -10.29,31.27 -16.87,40.01 -6.63,8.75 -14.28,13.09 -23.05,13.09 -6.83,0 -12.26,-2.77 -16.26,-8.37 -4.03,-5.6 -6.05,-13.27 -6.05,-22.96 0,-2.08 0.12,-4.53 0.41,-7.36 0.29,-2.83 0.7,-5.92 1.15,-9.25z"/>
   <path class="fil0 str0" d="M336.16 33.4c13.56,0 24.55,12.56 24.55,28.06 0,15.5 -10.99,28.06 -24.55,28.06 -13.56,0 -24.54,-12.56 -24.54,-28.06 0,-15.5 10.99,-28.06 24.54,-28.06z"/>
   <path class="fil3 str1" d="M313.68 61.46c0.35,0 0.64,2.01 0.64,4.48 0,2.47 -0.29,4.48 -0.64,4.48 -0.35,0 -0.64,-2.01 -0.64,-4.48 0,-2.48 0.29,-4.48 0.64,-4.48z"/>
  </g>
 </g>
</svg>
