<?xml version="1.0" encoding="UTF-8"?>
<!DOCTYPE svg PUBLIC "-//W3C//DTD SVG 1.1//EN" "http://www.w3.org/Graphics/SVG/1.1/DTD/svg11.dtd">
<!-- Creator: CorelDRAW -->
<svg xmlns="http://www.w3.org/2000/svg" xml:space="preserve" width="0.590283in" height="0.62324in" version="1.1" style="shape-rendering:geometricPrecision; text-rendering:geometricPrecision; image-rendering:optimizeQuality; fill-rule:evenodd; clip-rule:evenodd"
viewBox="0 0 533.09 562.85"
 xmlns:xlink="http://www.w3.org/1999/xlink"
 xmlns:xodm="http://www.corel.com/coreldraw/odm/2003">
 <defs>
  <style type="text/css">
   <![CDATA[
    .str3 {stroke:#363894;stroke-width:37.63;stroke-miterlimit:2.61313}
    .str1 {stroke:white;stroke-width:6.27;stroke-miterlimit:2.61313}
    .str0 {stroke:#EC168E;stroke-width:6.27;stroke-miterlimit:2.61313}
    .str2 {stroke:#363894;stroke-width:6.27;stroke-miterlimit:2.61313}
    .str4 {stroke:#949699;stroke-width:2.71;stroke-miterlimit:2.61313}
    .fil3 {fill:none}
    .fil1 {fill:white}
    .fil0 {fill:#EC168E}
    .fil2 {fill:#363894}
    .fil4 {fill:#ED282E;fill-rule:nonzero}
    .fil5 {fill:#363894;fill-rule:nonzero}
   ]]>
  </style>
 </defs>
 <g id="Layer_x0020_1">
  <metadata id="CorelCorpID_0Corel-Layer"/>
  <g id="_714850768">
   <g>
    <path class="fil0 str0" d="M266.54 3.14c145.47,0 263.41,124.59 263.41,278.29 0,153.7 -117.93,278.29 -263.41,278.29 -145.48,0 -263.41,-124.59 -263.41,-278.29 0,-153.7 117.93,-278.29 263.41,-278.29z"/>
    <path class="fil1 str1" d="M266.57 37.51c129.07,0 233.71,110.55 233.71,246.91 0,136.37 -104.63,246.91 -233.71,246.91 -129.07,0 -233.71,-110.55 -233.71,-246.91 0,-136.37 104.63,-246.91 233.71,-246.91z"/>
   </g>
   <g>
    <g>
     <g>
      <g>
       <path class="fil2 str2" d="M269.66 114.48c98.45,0 178.26,84.32 178.26,188.33 0,104.01 -79.81,188.33 -178.26,188.33 -98.45,0 -178.26,-84.32 -178.26,-188.33 0,-104.01 79.81,-188.33 178.26,-188.33z"/>
       <path class="fil1 str1" d="M268.72 133.16c88.87,0 160.92,76.12 160.92,170.01 0,93.9 -72.05,170.02 -160.92,170.02 -88.87,0 -160.92,-76.12 -160.92,-170.02 0,-93.89 72.05,-170.01 160.92,-170.01z"/>
       <path class="fil1 str2" d="M268.13 137c86.29,0 156.24,73.91 156.24,165.07 0,91.16 -69.96,165.07 -156.24,165.07 -86.29,0 -156.24,-73.91 -156.24,-165.07 0,-91.17 69.95,-165.07 156.24,-165.07z"/>
      </g>
      <g>
       <path class="fil2 str2" d="M270.1 173.58c68.06,0 123.23,58.29 123.23,130.2 0,71.91 -55.17,130.2 -123.23,130.2 -68.06,0 -123.23,-58.29 -123.23,-130.2 0,-71.91 55.17,-130.2 123.23,-130.2z"/>
       <g>
        <polygon class="fil1 str1" points="260.07,186.25 281.36,184.52 268.7,304.67 "/>
        <polygon class="fil1 str1" points="231.37,193.19 251.52,185.71 268.76,305.22 "/>
        <polygon class="fil1 str1" points="205.35,207.73 222.98,195 268.97,305.73 "/>
        <polygon class="fil1 str1" points="183.79,228.87 197.69,211.77 269.29,306.17 "/>
        <polygon class="fil1 str1" points="168.16,255.18 177.39,234.87 269.71,306.51 "/>
        <polygon class="fil1 str1" points="159.51,284.87 163.44,262.72 270.19,306.73 "/>
        <polygon class="fil1 str1" points="158.43,315.9 156.8,293.44 270.72,306.8 "/>
        <polygon class="fil1 str1" points="165.02,346.16 157.92,324.92 271.24,306.73 "/>
        <polygon class="fil1 str1" points="178.8,373.6 166.74,355.02 271.72,306.51 "/>
        <polygon class="fil1 str1" points="198.85,396.35 182.63,381.68 272.14,306.17 "/>
        <polygon class="fil1 str1" points="223.8,412.84 204.54,403.1 272.46,305.73 "/>
        <polygon class="fil1 str1" points="251.94,421.96 230.95,417.81 272.67,305.22 "/>
        <polygon class="fil1 str1" points="281.36,423.09 260.07,424.82 272.73,304.67 "/>
        <polygon class="fil1 str1" points="310.06,416.15 289.92,423.63 272.67,304.12 "/>
        <polygon class="fil1 str1" points="336.08,401.61 318.45,414.33 272.46,303.6 "/>
        <polygon class="fil1 str1" points="357.64,380.46 343.74,397.57 272.14,303.16 "/>
        <polygon class="fil1 str1" points="373.28,354.15 364.05,374.47 271.72,302.82 "/>
        <polygon class="fil1 str1" points="381.93,324.47 378,346.61 271.24,302.61 "/>
        <polygon class="fil1 str1" points="383,293.44 384.63,315.9 270.72,302.54 "/>
        <polygon class="fil1 str1" points="376.41,263.17 383.51,284.42 270.19,302.61 "/>
        <polygon class="fil1 str1" points="362.63,235.73 374.69,254.32 269.71,302.82 "/>
        <polygon class="fil1 str1" points="342.58,212.99 358.8,227.65 269.29,303.16 "/>
        <polygon class="fil1 str1" points="317.63,196.5 336.89,206.23 268.97,303.6 "/>
        <polygon class="fil1 str1" points="289.49,187.37 310.48,191.52 268.76,304.12 "/>
        <polygon class="fil1 str1" points="260.07,186.25 281.36,184.52 268.7,304.67 "/>
        <polygon class="fil1 str1" points="231.37,193.19 251.52,185.71 268.76,305.22 "/>
        <polygon class="fil1 str1" points="205.35,207.73 222.98,195 268.97,305.73 "/>
        <polygon class="fil1 str1" points="183.79,228.87 197.69,211.77 269.29,306.17 "/>
        <polygon class="fil1 str1" points="168.15,255.18 177.38,234.87 269.71,306.51 "/>
        <polygon class="fil1 str1" points="159.51,284.86 163.43,262.72 270.19,306.73 "/>
        <polygon class="fil1 str1" points="158.43,315.9 156.8,293.44 270.72,306.8 "/>
       </g>
      </g>
      <path class="fil3 str3" d="M492.45 308.74l-434.3 52.95m-12.76 -69.51l434.8 -53.01"/>
      <polygon class="fil1 str1" points="40.76,295.32 483.68,240.74 489.68,306.06 46.76,360.65 "/>
     </g>
     <path class="fil4 str4" d="M62.77 329.66l-5.07 -14.1 -2.62 15.18 7.69 -1.07zm-20.93 24.1l-0.52 -6.06 1.37 -0.19c1.24,-0.17 2.12,-0.54 2.64,-1.1 0.53,-0.57 0.98,-1.9 1.36,-4l6.65 -37.12 11.3 -1.58 12.43 34.66c0.63,1.68 1.23,2.76 1.81,3.24 0.57,0.48 1.39,0.64 2.46,0.49l1.93 -0.27 0.53 6.06 -20.92 2.92 -0.52 -6.06 1.6 -0.22c1.37,-0.19 2.27,-0.44 2.72,-0.74 0.44,-0.3 0.64,-0.76 0.58,-1.4 -0.02,-0.19 -0.12,-0.52 -0.27,-0.95 -0.07,-0.21 -0.13,-0.37 -0.16,-0.49l-1.95 -5.49 -10.9 1.52 -0.98 5.53c-0.04,0.32 -0.07,0.66 -0.1,1 -0.02,0.34 -0.03,0.64 -0.01,0.89 0.05,0.63 0.29,1.03 0.7,1.22 0.41,0.18 1.24,0.19 2.51,0.01l1.86 -0.26 0.53 6.06 -16.62 2.32zm37.78 -46.25l-0.5 -5.82 21.48 -3 0.51 5.86c-0.25,0.01 -0.5,0.04 -0.78,0.06 -0.27,0.03 -0.66,0.08 -1.14,0.15 -1.54,0.22 -2.54,0.71 -3,1.47 -0.46,0.78 -0.54,2.74 -0.27,5.91l1.6 18.55c0.31,3.53 1.02,5.95 2.15,7.27 1.13,1.32 2.86,1.81 5.2,1.48 2.8,-0.39 4.73,-1.36 5.8,-2.92 1.08,-1.56 1.48,-3.99 1.19,-7.27l-1.62 -18.77c-0.27,-3.15 -0.71,-5.11 -1.3,-5.85 -0.59,-0.74 -1.7,-1 -3.32,-0.77 -0.38,0.06 -0.68,0.1 -0.89,0.14 -0.22,0.04 -0.41,0.08 -0.56,0.12l-0.5 -5.86 16.89 -2.36 0.51 5.86c-1.44,0.2 -2.53,0.44 -3.27,0.71 -0.74,0.28 -1.22,0.64 -1.44,1.07 -0.14,0.24 -0.22,0.72 -0.23,1.43 -0,0.71 0.1,2.27 0.31,4.7l1.69 19.59c0.43,4.94 -0.6,8.89 -3.08,11.84 -2.49,2.95 -6.31,4.79 -11.5,5.51 -4.75,0.66 -8.55,-0.1 -11.42,-2.28 -2.86,-2.18 -4.48,-5.57 -4.88,-10.18l-1.76 -20.35c-0.25,-2.88 -0.66,-4.74 -1.26,-5.58 -0.58,-0.84 -1.56,-1.15 -2.97,-0.96 -0.41,0.06 -0.73,0.1 -0.96,0.15 -0.24,0.05 -0.47,0.08 -0.67,0.11zm80.08 -17.08l1.54 17.86 -5.13 0.72c-0.34,-3.97 -1.21,-6.83 -2.6,-8.56 -1.39,-1.72 -3.36,-2.4 -5.92,-2.05l-0.58 0.08 2.54 29.42c0.14,1.6 0.3,2.63 0.46,3.13 0.17,0.49 0.44,0.78 0.8,0.87 0.4,0.14 0.94,0.21 1.61,0.21 0.68,0 1.85,-0.09 3.52,-0.29l0.52 5.94 -22.49 3.14 -0.52 -5.93c1.18,-0.17 2.19,-0.35 3.03,-0.58 0.85,-0.22 1.54,-0.48 2.08,-0.78 0.32,-0.18 0.52,-0.54 0.6,-1.06 0.08,-0.52 0.05,-1.56 -0.08,-3.11l-0.08 -0.91 -2.47 -28.58 -0.55 0.07c-2.57,0.36 -4.4,1.58 -5.48,3.67 -1.08,2.08 -1.45,5.11 -1.11,9.05l-5.08 0.71 -1.54 -17.86 36.9 -5.16zm17.32 21.05c0.55,6.31 1.66,10.82 3.34,13.52 1.69,2.7 4.1,3.83 7.22,3.39 3.11,-0.43 5.26,-2.2 6.45,-5.3 1.18,-3.1 1.5,-7.8 0.95,-14.12 -0.55,-6.32 -1.66,-10.82 -3.34,-13.52 -1.69,-2.7 -4.09,-3.83 -7.2,-3.4 -3.13,0.44 -5.28,2.2 -6.47,5.3 -1.18,3.1 -1.5,7.8 -0.95,14.12zm-12.31 1.72c-0.66,-7.64 0.71,-13.91 4.11,-18.81 3.4,-4.9 8.43,-7.81 15.07,-8.74 6.61,-0.92 11.99,0.54 16.15,4.37 4.15,3.83 6.56,9.57 7.23,17.23 0.66,7.64 -0.71,13.9 -4.11,18.77 -3.39,4.87 -8.4,7.78 -15.03,8.7 -6.64,0.93 -12.05,-0.52 -16.2,-4.35 -4.16,-3.83 -6.57,-9.56 -7.22,-17.18zm49.85 -20.22c-0.15,-1.76 -0.46,-2.83 -0.92,-3.24 -0.46,-0.4 -1.43,-0.5 -2.93,-0.29l-1.99 0.28 -0.52 -6.07 18.13 -2.53 17.34 30.25 -1.92 -22.2c-0.15,-1.76 -0.46,-2.83 -0.92,-3.24 -0.46,-0.4 -1.44,-0.49 -2.93,-0.29l-2.16 0.3 -0.53 -6.06 17.3 -2.42 0.52 6.06 -1.76 0.25c-1.49,0.21 -2.43,0.57 -2.82,1.09 -0.38,0.52 -0.49,1.65 -0.34,3.41l3.13 36.23 -11.65 1.63 -18.51 -32.28 2.1 24.37c0.15,1.76 0.46,2.83 0.92,3.24 0.47,0.4 1.45,0.5 2.93,0.29l2.16 -0.3 0.52 6.07 -17.53 2.45 -0.52 -6.07 1.99 -0.28c1.5,-0.21 2.43,-0.57 2.81,-1.09 0.39,-0.52 0.5,-1.66 0.35,-3.41l-2.26 -26.15zm54.98 5.58c0.55,6.32 1.66,10.82 3.34,13.52 1.69,2.7 4.1,3.83 7.22,3.4 3.11,-0.44 5.26,-2.2 6.45,-5.3 1.18,-3.1 1.5,-7.8 0.95,-14.12 -0.54,-6.31 -1.66,-10.82 -3.34,-13.52 -1.69,-2.7 -4.09,-3.83 -7.2,-3.39 -3.13,0.44 -5.28,2.2 -6.47,5.3 -1.18,3.1 -1.5,7.8 -0.95,14.12zm-12.31 1.72c-0.66,-7.64 0.71,-13.91 4.11,-18.81 3.4,-4.9 8.43,-7.82 15.07,-8.74 6.6,-0.92 11.99,0.54 16.15,4.37 4.16,3.83 6.57,9.57 7.23,17.24 0.66,7.64 -0.7,13.9 -4.11,18.77 -3.39,4.88 -8.4,7.78 -15.03,8.7 -6.64,0.93 -12.05,-0.52 -16.2,-4.35 -4.16,-3.83 -6.57,-9.56 -7.22,-17.18zm58.26 5.07c0.15,1.76 0.46,2.83 0.91,3.24 0.44,0.4 1.42,0.5 2.94,0.28l1.08 -0.15 0.52 6.06 -16.23 2.27 -0.52 -6.06 1.86 -0.26c1.51,-0.21 2.45,-0.58 2.82,-1.09 0.37,-0.52 0.49,-1.65 0.33,-3.41l-2.26 -26.15c-0.15,-1.76 -0.46,-2.83 -0.91,-3.24 -0.46,-0.4 -1.43,-0.5 -2.94,-0.29l-1.86 0.26 -0.52 -6.06 19.9 -2.78 9.06 27.59 4.49 -29.48 19.74 -2.76 0.52 6.07 -1.93 0.27c-1.5,0.21 -2.43,0.57 -2.81,1.09 -0.38,0.52 -0.49,1.65 -0.34,3.41l2.26 26.15c0.15,1.76 0.46,2.83 0.92,3.24 0.46,0.4 1.44,0.5 2.93,0.29l1.93 -0.27 0.52 6.06 -19.91 2.78 -0.52 -6.06 1.14 -0.16c1.47,-0.2 2.39,-0.57 2.77,-1.07 0.37,-0.51 0.49,-1.65 0.33,-3.42l-2.5 -28.92 -6.07 40.32 -7.62 1.06 -12.53 -37.79 2.51 29zm55.67 -20.98c0.55,6.32 1.66,10.82 3.34,13.52 1.69,2.7 4.1,3.83 7.22,3.39 3.11,-0.43 5.26,-2.2 6.45,-5.3 1.18,-3.1 1.5,-7.8 0.95,-14.12 -0.55,-6.32 -1.66,-10.82 -3.34,-13.52 -1.69,-2.7 -4.09,-3.83 -7.2,-3.4 -3.13,0.44 -5.28,2.2 -6.47,5.3 -1.18,3.1 -1.5,7.8 -0.95,14.12zm-12.31 1.72c-0.66,-7.64 0.71,-13.91 4.11,-18.81 3.4,-4.9 8.43,-7.82 15.07,-8.74 6.61,-0.92 11.99,0.54 16.15,4.37 4.15,3.83 6.56,9.57 7.23,17.23 0.66,7.64 -0.71,13.9 -4.11,18.77 -3.39,4.87 -8.4,7.78 -15.03,8.7 -6.64,0.93 -12.05,-0.52 -16.2,-4.35 -4.16,-3.83 -6.57,-9.56 -7.22,-17.18zm43.99 -23.71l-0.5 -5.82 21.48 -3 0.5 5.85c-0.25,0.01 -0.5,0.04 -0.78,0.06 -0.27,0.03 -0.66,0.08 -1.14,0.15 -1.55,0.21 -2.54,0.7 -3,1.46 -0.46,0.78 -0.54,2.74 -0.27,5.91l1.6 18.55c0.31,3.53 1.02,5.95 2.15,7.27 1.14,1.32 2.87,1.81 5.2,1.48 2.8,-0.39 4.73,-1.36 5.8,-2.92 1.08,-1.56 1.48,-3.99 1.19,-7.27l-1.62 -18.77c-0.27,-3.15 -0.71,-5.11 -1.3,-5.85 -0.59,-0.74 -1.7,-1 -3.32,-0.77 -0.39,0.05 -0.68,0.09 -0.9,0.14 -0.21,0.04 -0.4,0.08 -0.56,0.12l-0.5 -5.86 16.89 -2.36 0.5 5.85c-1.44,0.2 -2.53,0.44 -3.27,0.71 -0.74,0.28 -1.22,0.64 -1.44,1.07 -0.14,0.24 -0.22,0.72 -0.23,1.43 -0.01,0.71 0.1,2.27 0.31,4.7l1.69 19.59c0.43,4.94 -0.6,8.89 -3.09,11.84 -2.48,2.94 -6.31,4.78 -11.5,5.51 -4.75,0.66 -8.55,-0.1 -11.42,-2.28 -2.86,-2.18 -4.48,-5.57 -4.88,-10.18l-1.76 -20.35c-0.25,-2.88 -0.67,-4.74 -1.26,-5.58 -0.58,-0.84 -1.57,-1.16 -2.97,-0.96 -0.41,0.06 -0.73,0.1 -0.96,0.15 -0.24,0.05 -0.47,0.08 -0.66,0.11zm53 34.19l-4.58 0.64 -1.58 -18.2 5.08 -0.71c0.78,3.64 2.33,6.42 4.66,8.34 2.33,1.91 5.05,2.65 8.15,2.22 2.14,-0.3 3.77,-1.03 4.89,-2.19 1.13,-1.16 1.63,-2.59 1.48,-4.29 -0.23,-2.68 -2.66,-4.34 -7.3,-4.99 -0.75,-0.1 -1.33,-0.17 -1.73,-0.24 -4.06,-0.58 -6.87,-1.14 -8.45,-1.69 -1.58,-0.53 -2.92,-1.21 -3.99,-2.04 -1.38,-1.03 -2.46,-2.35 -3.26,-3.95 -0.8,-1.59 -1.29,-3.41 -1.46,-5.45 -0.41,-4.67 0.63,-8.48 3.1,-11.45 2.47,-2.96 6.17,-4.79 11.08,-5.47 2.45,-0.34 4.64,-0.32 6.58,0.05 1.94,0.38 3.66,1.13 5.15,2.24l0.85 -3.42 4.69 -0.65 1.46 16.91 -5.18 0.72c-0.63,-3.37 -2.03,-5.87 -4.18,-7.54 -2.15,-1.67 -4.81,-2.29 -7.98,-1.85 -1.89,0.27 -3.35,0.96 -4.37,2.08 -1.02,1.12 -1.46,2.5 -1.32,4.14 0.2,2.36 2.86,3.84 7.95,4.42 1.94,0.23 3.47,0.44 4.6,0.62 4.46,0.69 7.8,2.12 10.02,4.26 2.22,2.14 3.51,5.18 3.84,9.09 0.4,4.6 -0.7,8.46 -3.28,11.58 -2.59,3.11 -6.3,5 -11.12,5.67 -2.32,0.32 -4.6,0.26 -6.86,-0.18 -2.25,-0.44 -4.16,-1.2 -5.73,-2.25l-1.22 3.58z"/>
    </g>
    <polygon class="fil2 str2" points="138.42,239.25 141.76,247.66 151.76,247.89 143.82,253.31 146.67,261.87 138.42,256.81 130.18,261.87 133.03,253.31 125.08,247.89 135.09,247.66 "/>
    <polygon class="fil2 str2" points="147.01,363.06 150.35,371.47 160.35,371.7 152.41,377.12 155.26,385.68 147.01,380.62 138.77,385.68 141.62,377.12 133.68,371.7 143.68,371.47 "/>
    <polygon class="fil2 str2" points="387.55,210.46 390.88,218.86 400.88,219.09 392.94,224.52 395.79,233.07 387.55,228.01 379.3,233.07 382.15,224.52 374.21,219.09 384.21,218.86 "/>
    <polygon class="fil2 str2" points="404.06,331.06 407.39,339.47 417.4,339.7 409.45,345.13 412.3,353.68 404.06,348.62 395.81,353.68 398.66,345.13 390.72,339.7 400.72,339.47 "/>
    <path class="fil5" d="M155.27 480.36l14.13 -11.85 3.2 3.05 -14.13 11.85 -3.2 -3.05zm8.27 8.46l11.98 -13.62 4.02 2.83 3.94 18.77c0.09,0.42 0.16,0.79 0.2,1.13 0.04,0.34 0.05,0.63 0.03,0.89l9.71 -11.04 3.51 2.46 -11.98 13.62 -3.99 -2.8 -4.08 -19.1c-0.06,-0.29 -0.11,-0.58 -0.13,-0.87 -0.01,-0.28 -0.01,-0.56 0,-0.85l-9.71 11.04 -3.49 -2.46zm28.73 12.76l4.03 1.81c-0.59,1.14 -0.36,2.36 0.71,3.68 1.07,1.31 2.81,2.51 5.22,3.59 2.37,1.07 4.39,1.66 6.05,1.78 1.65,0.11 2.72,-0.27 3.21,-1.14 0.66,-1.19 -1.4,-3.24 -6.21,-6.17 -0.29,-0.17 -0.51,-0.31 -0.66,-0.4 -3.89,-2.38 -6.34,-4.17 -7.35,-5.39 -1,-1.22 -1.17,-2.39 -0.54,-3.52 0.78,-1.38 2.41,-2.04 4.87,-1.98 2.47,0.06 5.38,0.84 8.7,2.34 3.4,1.53 5.83,3.17 7.28,4.92 1.45,1.75 1.77,3.41 0.93,4.96l-3.98 -1.78c0.43,-1.1 0.17,-2.21 -0.76,-3.33 -0.95,-1.12 -2.51,-2.17 -4.7,-3.15 -2.05,-0.92 -3.81,-1.43 -5.28,-1.52 -1.49,-0.1 -2.43,0.23 -2.86,0.97 -0.67,1.2 1.35,3.23 6.09,6.09 0.7,0.43 1.25,0.76 1.62,0.99l0.41 0.25c3.09,1.89 5.04,3.31 5.86,4.26 0.63,0.71 1.01,1.43 1.16,2.12 0.15,0.7 0.06,1.35 -0.29,1.97 -0.84,1.49 -2.56,2.2 -5.18,2.13 -2.61,-0.07 -5.74,-0.92 -9.36,-2.54 -3.72,-1.67 -6.36,-3.46 -7.9,-5.34 -1.55,-1.88 -1.91,-3.75 -1.06,-5.59zm34.18 19.4l4.42 -14.7 -10.49 -2.52 0.61 -2.03 25.51 6.14 -0.61 2.03 -10.49 -2.52 -4.42 14.7 -4.54 -1.09zm19.19 3.93l3.06 -17.1 4.62 0.66 -3.06 17.11 -4.62 -0.66zm19.36 1.97l0.16 -15.22 -10.87 -0.09 0.02 -2.1 26.42 0.21 -0.02 2.1 -10.86 -0.09 -0.16 15.22 -4.7 -0.04zm18.59 -6.41l-2.22 -10.56 4.59 -0.77 2.22 10.58c0.34,1.6 1.28,2.66 2.84,3.19 1.56,0.53 3.82,0.55 6.76,0.06 2.91,-0.49 5,-1.24 6.26,-2.26 1.28,-1.02 1.75,-2.31 1.41,-3.88l-2.22 -10.58 4.61 -0.77 2.21 10.56c0.48,2.28 -0.33,4.21 -2.4,5.77 -2.1,1.56 -5.4,2.72 -9.94,3.48 -4.22,0.71 -7.52,0.66 -9.87,-0.14 -2.36,-0.8 -3.78,-2.36 -4.26,-4.67zm41.76 -2.4l-6.57 -14.04 -10.02 3.75 -0.9 -1.94 24.37 -9.12 0.91 1.94 -10.02 3.75 6.57 14.04 -4.34 1.62zm17.84 -7.34l-9.18 -15.26 4.12 -1.98 9.17 15.26 -4.12 1.98zm7.8 -13.9c1.49,1.77 3.47,2.61 5.93,2.51 2.46,-0.1 5.13,-1.11 8.01,-3.05 2.86,-1.93 4.67,-3.93 5.44,-6.02 0.77,-2.08 0.42,-4.01 -1.08,-5.78 -1.5,-1.78 -3.48,-2.61 -5.93,-2.53 -2.45,0.09 -5.11,1.1 -7.97,3.03 -2.88,1.94 -4.7,3.95 -5.48,6.04 -0.79,2.09 -0.42,4.02 1.07,5.8zm-3.87 2.61c-1.93,-2.29 -2.28,-4.85 -1.05,-7.69 1.22,-2.84 3.86,-5.64 7.95,-8.39 4.07,-2.74 7.79,-4.24 11.17,-4.5 3.38,-0.26 6.03,0.75 7.96,3.04 1.93,2.29 2.28,4.85 1.08,7.68 -1.22,2.84 -3.86,5.62 -7.93,8.36 -4.08,2.76 -7.81,4.26 -11.2,4.53 -3.4,0.27 -6.05,-0.74 -7.98,-3.02zm35.65 -14.7l-15.18 -10.76 3.18 -3.59 21.02 -3.45c0.47,-0.08 0.88,-0.14 1.26,-0.17 0.38,-0.03 0.71,-0.04 1,-0.02l-12.31 -8.72 2.77 -3.12 15.19 10.76 -3.15 3.56 -21.38 3.58c-0.33,0.05 -0.65,0.09 -0.97,0.11 -0.31,0.01 -0.63,0.01 -0.95,-0l12.31 8.72 -2.76 3.11z"/>
   </g>
  </g>
 </g>
</svg>
