<?xml version="1.0" encoding="UTF-8"?>
<!DOCTYPE svg PUBLIC "-//W3C//DTD SVG 1.1//EN" "http://www.w3.org/Graphics/SVG/1.1/DTD/svg11.dtd">
<!-- Creator: CorelDRAW -->
<svg xmlns="http://www.w3.org/2000/svg" xml:space="preserve" width="0.601083in" height="0.639803in" version="1.1" style="shape-rendering:geometricPrecision; text-rendering:geometricPrecision; image-rendering:optimizeQuality; fill-rule:evenodd; clip-rule:evenodd"
viewBox="0 0 580.98 618.4"
 xmlns:xlink="http://www.w3.org/1999/xlink"
 xmlns:xodm="http://www.corel.com/coreldraw/odm/2003">
 <defs>
  <style type="text/css">
   <![CDATA[
    .str1 {stroke:white;stroke-width:6.71;stroke-miterlimit:2.61313}
    .str0 {stroke:#00AFEF;stroke-width:6.71;stroke-miterlimit:2.61313}
    .fil1 {fill:white}
    .fil0 {fill:#00AFEF}
   ]]>
  </style>
 </defs>
 <g id="Layer_x0020_1">
  <metadata id="CorelCorpID_0Corel-Layer"/>
  <path class="fil0 str0" d="M290.49 3.36c158.58,0 287.13,128.55 287.13,287.13 0,158.58 -128.56,287.13 -287.13,287.13 -158.58,0 -287.14,-128.55 -287.14,-287.13 0,-158.58 128.56,-287.13 287.14,-287.13z"/>
  <path class="fil1 str1" d="M290.49 218.06c51.09,0 92.51,41.42 92.51,92.52 0,51.09 -41.42,92.51 -92.51,92.51 -51.09,0 -92.52,-41.42 -92.52,-92.51 0,-51.09 41.42,-92.52 92.52,-92.52z"/>
  <polygon class="fil1 str1" points="235.96,371.37 345.02,371.37 345.02,615.05 235.96,615.05 "/>
 </g>
</svg>
