<?xml version="1.0" encoding="UTF-8"?>
<!DOCTYPE svg PUBLIC "-//W3C//DTD SVG 1.1//EN" "http://www.w3.org/Graphics/SVG/1.1/DTD/svg11.dtd">
<!-- Creator: CorelDRAW -->
<svg xmlns="http://www.w3.org/2000/svg" xml:space="preserve" width="0.978992in" height="0.468228in" version="1.1" style="shape-rendering:geometricPrecision; text-rendering:geometricPrecision; image-rendering:optimizeQuality; fill-rule:evenodd; clip-rule:evenodd"
viewBox="0 0 980.79 469.09"
 xmlns:xlink="http://www.w3.org/1999/xlink"
 xmlns:xodm="http://www.corel.com/coreldraw/odm/2003">
 <defs>
  <style type="text/css">
   <![CDATA[
    .str5 {stroke:white;stroke-width:6.96;stroke-miterlimit:2.61313}
    .str0 {stroke:#2D2A2B;stroke-width:6.96;stroke-miterlimit:2.61313}
    .str1 {stroke:#F5842A;stroke-width:6.96;stroke-miterlimit:2.61313}
    .str3 {stroke:#00AFEF;stroke-width:6.96;stroke-miterlimit:2.61313}
    .str2 {stroke:#363894;stroke-width:6.96;stroke-miterlimit:2.61313}
    .str4 {stroke:white;stroke-width:3.01;stroke-miterlimit:2.61313}
    .fil0 {fill:none}
    .fil4 {fill:white}
    .fil2 {fill:#ED282E}
    .fil1 {fill:#00AFEF}
    .fil3 {fill:white;fill-rule:nonzero}
   ]]>
  </style>
 </defs>
 <g id="Layer_x0020_1">
  <metadata id="CorelCorpID_0Corel-Layer"/>
  <g id="_544859328">
   <polygon class="fil0 str0" points="773.09,5.33 778.62,5.33 778.62,9.01 773.09,9.01 "/>
   <polygon class="fil1 str0" points="3.48,3.48 977.31,3.48 977.31,465.61 3.48,465.61 "/>
   <g>
    <g>
     <polygon class="fil2 str1" points="101.55,238.31 127.76,238.31 165.88,238.31 165.88,263.2 127.76,263.2 127.76,299.39 101.55,299.39 101.55,263.2 "/>
     <polygon class="fil2 str1" points="100.98,378.44 127.63,378.44 166.38,378.44 166.38,353.15 127.63,353.15 127.63,316.36 100.98,316.36 100.98,353.15 "/>
     <polygon class="fil2 str1" points="248.3,238.5 222.19,238.5 184.22,238.5 184.22,263.29 222.19,263.29 222.19,299.35 248.3,299.35 248.3,263.29 "/>
     <polygon class="fil2 str1" points="248.29,378.25 221.74,378.25 183.14,378.25 183.14,353.05 221.74,353.05 221.74,316.4 248.29,316.4 248.29,353.05 "/>
     <polygon class="fil2 str2" points="156.75,291.48 189.31,291.48 189.31,322.39 156.75,322.39 "/>
     <polygon class="fil1 str3" points="248.36,238.5 813.53,238.5 813.53,378.39 248.36,378.39 "/>
     <path class="fil3 str4" d="M267.98 342.61l0 -64.32 13.35 0 0 23.97 26.62 0 0 -23.97 13.35 0 0 64.32 -13.35 0 0 -28.52 -26.62 0 0 28.52 -13.35 0zm79.6 -11.61l10.64 0c6.16,0 10.62,-1.61 13.36,-4.83 2.77,-3.21 4.15,-8.43 4.15,-15.65 0,-7.2 -1.29,-12.48 -3.85,-15.86 -2.56,-3.38 -6.58,-5.07 -12.03,-5.07l-12.26 0 0 41.41zm-13 11.61l0 -64.32 25.26 0c9.89,0 17.27,2.66 22.13,7.99 4.86,5.32 7.27,13.41 7.27,24.24 0,5.87 -0.89,11.06 -2.68,15.55 -1.79,4.49 -4.41,8.09 -7.83,10.83 -2.54,2.04 -5.47,3.5 -8.74,4.4 -3.28,0.88 -7.85,1.32 -13.73,1.32l-21.68 0zm65.17 0l0 -64.32 45 0 0 11.18 -31.91 0 0 14.58 27.97 0 0 11.18 -27.97 0 0 27.38 -13.09 0zm109.72 -22.09c-0.5,7.3 -3.32,13.12 -8.47,17.43 -5.16,4.31 -11.87,6.45 -20.16,6.45 -9.55,0 -16.96,-2.96 -22.26,-8.91 -5.3,-5.93 -7.94,-14.25 -7.94,-24.97 0,-10.96 2.7,-19.33 8.1,-25.16 5.39,-5.83 13.17,-8.73 23.27,-8.73 8.24,0 14.74,1.99 19.5,6 4.77,4.01 7.4,9.66 7.86,16.97l-13.09 0c-0.55,-3.63 -2.02,-6.41 -4.45,-8.31 -2.44,-1.92 -5.7,-2.87 -9.82,-2.87 -5.83,0 -10.26,1.88 -13.28,5.63 -3.03,3.76 -4.56,9.25 -4.56,16.48 0,6.99 1.51,12.39 4.53,16.2 3.01,3.81 7.32,5.71 12.88,5.71 4.02,0 7.32,-1.03 9.9,-3.07 2.57,-2.05 4.22,-5 4.99,-8.84l13 0zm48.75 10.48l15.71 0c3.7,0 6.42,-0.67 8.1,-2.01 1.69,-1.34 2.54,-3.46 2.54,-6.33 0,-2.99 -0.84,-5.16 -2.5,-6.48 -1.65,-1.33 -4.41,-1.99 -8.22,-1.99l-15.63 0 0 16.82zm0 -27.83l15.15 0c3.28,0 5.66,-0.55 7.17,-1.67 1.5,-1.12 2.28,-2.89 2.28,-5.3 0,-2.37 -0.74,-4.07 -2.21,-5.13 -1.47,-1.06 -3.9,-1.59 -7.32,-1.59l-15.06 0 0 13.7zm-12.7 39.44l0 -64.32 30.39 0c6.58,0 11.62,1.38 15.07,4.16 3.45,2.78 5.17,6.82 5.17,12.12 0,3.26 -0.64,5.97 -1.92,8.16 -1.29,2.19 -3.21,3.88 -5.79,5.07 3.33,1.34 5.82,3.26 7.47,5.79 1.65,2.51 2.47,5.66 2.47,9.41 0,6.25 -2.05,11.08 -6.13,14.49 -4.07,3.41 -9.87,5.11 -17.37,5.11l-29.37 0zm87.1 -51.44l-8.93 27.39 17.9 0 -8.97 -27.39zm-7.71 -12.87l15.34 0 23.23 64.32 -13.92 0 -4.37 -13.24 -24.99 0 -4.24 13.24 -13.97 0 22.93 -64.32zm45.21 64.32l0 -64.32 13.88 0 26.17 44.18 0 -44.18 13.09 0 0 64.32 -13.7 0 -26.35 -44.2 0 44.2 -13.09 0zm66.44 0l0 -64.32 13.26 0 0 26.41 25.18 -26.41 16.58 0 -25.74 26.02 28.06 38.29 -16.2 0 -21.01 -29.44 -6.87 6.81 0 22.63 -13.26 0z"/>
    </g>
    <polygon class="fil4 str5" points="84.25,220.31 830.96,220.31 830.96,237.81 84.25,237.81 "/>
    <polygon class="fil4 str5" points="83.8,378.26 831.42,378.26 831.42,395.75 83.8,395.75 "/>
    <polygon class="fil4 str5" points="84.06,378.13 84.06,238.31 101.55,238.31 101.55,378.13 "/>
    <polygon class="fil4 str5" points="813.93,378.39 813.93,231.68 831.42,231.68 831.42,378.39 "/>
   </g>
   <polygon class="fil1 str0" points="3.48,3.48 977.31,3.48 977.31,465.61 3.48,465.61 "/>
   <g>
    <g>
     <polygon class="fil2 str1" points="134.34,162.89 160.54,162.89 198.66,162.89 198.66,187.77 160.54,187.77 160.54,223.96 134.34,223.96 134.34,187.77 "/>
     <polygon class="fil2 str1" points="133.77,303.01 160.41,303.01 199.16,303.01 199.16,277.72 160.41,277.72 160.41,240.93 133.77,240.93 133.77,277.72 "/>
     <polygon class="fil2 str1" points="281.08,163.07 254.97,163.07 217,163.07 217,187.86 254.97,187.86 254.97,223.92 281.08,223.92 281.08,187.86 "/>
     <polygon class="fil2 str1" points="281.07,302.82 254.53,302.82 215.92,302.82 215.92,277.62 254.53,277.62 254.53,240.97 281.07,240.97 281.07,277.62 "/>
     <polygon class="fil2 str2" points="189.53,216.04 222.08,216.04 222.08,246.95 189.53,246.95 "/>
     <polygon class="fil1 str3" points="281.15,163.07 846.31,163.07 846.31,302.96 281.15,302.96 "/>
     <path class="fil3 str4" d="M300.76 267.18l0 -64.32 13.35 0 0 23.97 26.62 0 0 -23.97 13.36 0 0 64.32 -13.36 0 0 -28.52 -26.62 0 0 28.52 -13.35 0zm79.6 -11.62l10.64 0c6.17,0 10.62,-1.61 13.37,-4.83 2.76,-3.21 4.14,-8.43 4.14,-15.65 0,-7.2 -1.29,-12.48 -3.85,-15.86 -2.56,-3.38 -6.58,-5.06 -12.03,-5.06l-12.26 0 0 41.41zm-13 11.62l0 -64.32 25.26 0c9.89,0 17.27,2.66 22.13,7.99 4.86,5.32 7.27,13.4 7.27,24.24 0,5.87 -0.9,11.06 -2.69,15.54 -1.8,4.49 -4.4,8.09 -7.82,10.83 -2.55,2.04 -5.48,3.5 -8.75,4.4 -3.28,0.88 -7.85,1.33 -13.73,1.33l-21.68 0zm65.17 0l0 -64.32 45 0 0 11.18 -31.91 0 0 14.58 27.97 0 0 11.18 -27.97 0 0 27.38 -13.08 0zm109.72 -22.1c-0.49,7.3 -3.32,13.12 -8.47,17.43 -5.16,4.31 -11.86,6.45 -20.16,6.45 -9.54,0 -16.95,-2.96 -22.26,-8.91 -5.29,-5.94 -7.94,-14.25 -7.94,-24.97 0,-10.96 2.71,-19.34 8.1,-25.17 5.4,-5.83 13.17,-8.73 23.27,-8.73 8.24,0 14.74,2 19.5,6.01 4.76,4.01 7.4,9.66 7.85,16.96l-13.08 0c-0.56,-3.63 -2.03,-6.41 -4.46,-8.31 -2.43,-1.91 -5.7,-2.87 -9.81,-2.87 -5.84,0 -10.26,1.88 -13.29,5.63 -3.03,3.76 -4.56,9.25 -4.56,16.48 0,6.99 1.51,12.38 4.52,16.2 3.02,3.81 7.32,5.72 12.88,5.72 4.03,0 7.33,-1.03 9.9,-3.08 2.57,-2.05 4.22,-5 5,-8.84l12.99 0zm48.75 10.48l15.71 0c3.7,0 6.41,-0.67 8.11,-2.01 1.68,-1.34 2.53,-3.46 2.53,-6.33 0,-2.99 -0.83,-5.16 -2.49,-6.48 -1.66,-1.33 -4.41,-1.98 -8.24,-1.98l-15.62 0 0 16.81zm0 -27.83l15.14 0c3.28,0 5.67,-0.55 7.17,-1.67 1.51,-1.12 2.28,-2.89 2.28,-5.3 0,-2.37 -0.73,-4.07 -2.22,-5.13 -1.46,-1.06 -3.9,-1.59 -7.32,-1.59l-15.06 0 0 13.69zm-12.7 39.45l0 -64.32 30.39 0c6.59,0 11.62,1.38 15.07,4.16 3.46,2.78 5.19,6.82 5.19,12.12 0,3.26 -0.65,5.98 -1.93,8.16 -1.29,2.19 -3.22,3.88 -5.79,5.07 3.33,1.34 5.82,3.27 7.47,5.79 1.65,2.51 2.47,5.66 2.47,9.41 0,6.25 -2.04,11.08 -6.13,14.49 -4.07,3.41 -9.86,5.12 -17.37,5.12l-29.38 0zm87.1 -51.45l-8.94 27.39 17.9 0 -8.96 -27.39zm-7.71 -12.87l15.33 0 23.23 64.32 -13.92 0 -4.37 -13.24 -24.99 0 -4.24 13.24 -13.97 0 22.94 -64.32zm45.2 64.32l0 -64.32 13.88 0 26.18 44.18 0 -44.18 13.09 0 0 64.32 -13.7 0 -26.35 -44.2 0 44.2 -13.09 0zm66.44 0l0 -64.32 13.26 0 0 26.41 25.18 -26.41 16.57 0 -25.74 26.02 28.06 38.3 -16.2 0 -21.01 -29.44 -6.87 6.81 0 22.63 -13.26 0z"/>
    </g>
    <polygon class="fil4 str5" points="117.03,144.88 863.75,144.88 863.75,162.37 117.03,162.37 "/>
    <polygon class="fil4 str5" points="116.58,302.84 864.2,302.84 864.2,320.33 116.58,320.33 "/>
    <polygon class="fil4 str5" points="116.84,302.7 116.84,162.89 134.34,162.89 134.34,302.7 "/>
    <polygon class="fil4 str5" points="846.71,302.96 846.71,156.26 864.2,156.26 864.2,302.96 "/>
   </g>
  </g>
 </g>
</svg>
