<?xml version="1.0" encoding="UTF-8"?>
<!DOCTYPE svg PUBLIC "-//W3C//DTD SVG 1.1//EN" "http://www.w3.org/Graphics/SVG/1.1/DTD/svg11.dtd">
<!-- Creator: CorelDRAW -->
<svg xmlns="http://www.w3.org/2000/svg" xml:space="preserve" width="0.959756in" height="0.764776in" version="1.1" style="shape-rendering:geometricPrecision; text-rendering:geometricPrecision; image-rendering:optimizeQuality; fill-rule:evenodd; clip-rule:evenodd"
viewBox="0 0 962.41 766.89"
 xmlns:xlink="http://www.w3.org/1999/xlink"
 xmlns:xodm="http://www.corel.com/coreldraw/odm/2003">
 <defs>
  <style type="text/css">
   <![CDATA[
    .str0 {stroke:#363894;stroke-width:6.96;stroke-miterlimit:2.61313}
    .str1 {stroke:#363894;stroke-width:3.01;stroke-miterlimit:2.61313}
    .fil0 {fill:#363894}
    .fil1 {fill:#363894;fill-rule:nonzero}
   ]]>
  </style>
 </defs>
 <g id="Layer_x0020_1">
  <metadata id="CorelCorpID_0Corel-Layer"/>
  <g id="_450159480">
   <path class="fil0 str0" d="M3.48 4.42c70.64,0 141.31,0 211.95,0 70.64,0 141.36,0 212.04,0 -55.16,126.53 -212,235.09 -211.95,379.57 0.05,144.53 156.83,252.97 211.95,379.42 -70.68,0 -141.4,0 -212.04,0 -70.64,0 -141.31,0 -211.95,0 0,-126.45 0,-252.97 0,-379.42 0,-126.45 0,-253.05 0,-379.57z"/>
   <path class="fil0 str0" d="M958.92 762.47c-70.64,0.11 -141.32,0.22 -211.95,0.32 -70.64,0.11 -141.36,0.22 -212.04,0.32 55.04,-126.6 211.78,-235.41 211.6,-379.89 -0.19,-144.53 -157.07,-252.73 -212.31,-379.09 70.68,-0.11 141.4,-0.22 212.04,-0.32 70.64,-0.11 141.32,-0.22 211.95,-0.32 0.12,126.45 0.24,252.97 0.36,379.42 0.12,126.45 0.24,253.05 0.36,379.57z"/>
   <path class="fil1 str1" d="M430.26 207.7l-17.56 105.22c7.18,-13.63 14.16,-23.45 20.87,-29.55 6.7,-6.1 13.88,-9.13 21.61,-9.13 6.34,0 11.34,2.25 15.01,6.71 3.71,4.5 5.55,10.56 5.55,18.13 0,2.98 -0.27,6.32 -0.85,10.08 -0.58,3.77 -1.43,8.05 -2.55,12.76l-11.47 45.26c-0.71,3.03 -1.26,5.53 -1.6,7.52 -0.3,1.99 -0.47,3.64 -0.47,4.89 0,2.29 0.51,4.07 1.5,5.32 0.99,1.26 2.35,1.9 4.08,1.9 2.66,0 5.48,-1.99 8.51,-5.97 3.03,-3.98 6.06,-9.69 9.02,-17.13l5.89 3.94c-4.66,12.25 -9.83,21.2 -15.55,26.83 -5.72,5.62 -12.42,8.44 -20.11,8.44 -6.98,0 -12.5,-2.12 -16.47,-6.36 -3.99,-4.2 -5.99,-9.95 -5.99,-17.22 0,-1.86 0.17,-4.02 0.54,-6.49 0.38,-2.46 0.95,-5.15 1.67,-8.09l12.25 -48.54c0.92,-3.64 1.63,-6.92 2.15,-9.82 0.51,-2.9 0.75,-5.37 0.75,-7.31 0,-2.38 -0.44,-4.15 -1.33,-5.37 -0.92,-1.26 -2.25,-1.86 -4.05,-1.86 -5.07,0 -11.44,6.27 -19.1,18.78 -7.69,12.5 -12.76,25.91 -15.22,40.19l-8.37 49.8 -27.71 0 25.32 -157.32c0.51,-3.37 0.88,-6.14 1.09,-8.31 0.21,-2.12 0.31,-4.15 0.31,-6.01 0,-5.93 -3.98,-9.13 -11.98,-9.61 -0.99,-0.09 -1.77,-0.17 -2.28,-0.26l1.39 -10.04c0.99,0 2.45,0.04 4.39,0.13 6.84,0.26 11.47,0.39 13.96,0.39 3.37,0 7.11,-0.13 11.2,-0.43 4.12,-0.3 9.33,-0.83 15.62,-1.47zm108.65 165.4c0.99,3.81 2.72,6.84 5.14,9.08 2.42,2.21 5.21,3.33 8.34,3.33 3.51,0 6.81,-1.56 9.91,-4.67 3.1,-3.11 5.85,-7.66 8.24,-13.67 3.13,-7.7 5.72,-16.75 7.73,-27.09 2.05,-10.34 3.06,-19.51 3.06,-27.43 0,-6.19 -0.89,-10.99 -2.65,-14.41 -1.77,-3.42 -4.22,-5.11 -7.32,-5.11 -4.32,0 -8.61,3.11 -12.83,9.31 -4.22,6.19 -8.65,15.97 -13.31,29.33l-6.3 41.32zm7.28 -63.38c4.73,-11.55 10.28,-20.42 16.72,-26.52 6.43,-6.14 13.31,-9.21 20.69,-9.21 8.71,0 15.52,3.72 20.45,11.16 4.9,7.44 7.35,17.78 7.35,31.07 0,23.41 -4.93,43.31 -14.84,59.75 -9.9,16.44 -21.92,24.66 -36.01,24.66 -5,0 -9.39,-1.3 -13.24,-3.85 -3.85,-2.6 -7.28,-6.49 -10.28,-11.73l-7.18 46.51c-0.41,2.85 -0.68,4.84 -0.82,5.97 -0.1,1.08 -0.17,1.95 -0.17,2.51 0,3.63 0.85,6.06 2.59,7.31 1.73,1.21 6.19,1.9 13.44,2.08l-1.29 10.38c-1.33,-0.09 -3.17,-0.17 -5.58,-0.26 -12.01,-0.47 -20.32,-0.73 -24.92,-0.73 -3.71,0 -10.65,0.22 -20.76,0.61 -3.1,0.17 -5.51,0.3 -7.18,0.39l1.39 -10.38 2.32 0c6.44,0 10.41,-5.19 11.95,-15.57 0.14,-0.87 0.24,-1.47 0.31,-1.78l18.96 -124.13c0.38,-2.59 0.68,-4.93 0.88,-6.96 0.21,-2.03 0.31,-3.59 0.31,-4.67 0,-2.72 -0.44,-4.76 -1.29,-6.1 -0.85,-1.34 -2.14,-2.03 -3.81,-2.03 -2.38,0 -5.21,1.9 -8.51,5.67 -3.3,3.76 -6.7,9.04 -10.21,15.88l-5.31 -5.19c5.48,-10.9 11.37,-18.95 17.67,-24.15 6.3,-5.19 13.34,-7.79 21.14,-7.79 5.72,0 10,1.82 12.86,5.45 2.86,3.63 4.29,9.08 4.29,16.35 0,1.08 -0.14,2.86 -0.44,5.32 -0.31,2.47 -0.78,5.8 -1.46,10z"/>
  </g>
 </g>
</svg>
