<?xml version="1.0" encoding="UTF-8"?>
<!DOCTYPE svg PUBLIC "-//W3C//DTD SVG 1.1//EN" "http://www.w3.org/Graphics/SVG/1.1/DTD/svg11.dtd">
<!-- Creator: CorelDRAW -->
<svg xmlns="http://www.w3.org/2000/svg" xml:space="preserve" width="0.626945in" height="0.626945in" version="1.1" style="shape-rendering:geometricPrecision; text-rendering:geometricPrecision; image-rendering:optimizeQuality; fill-rule:evenodd; clip-rule:evenodd"
viewBox="0 0 633.69 633.69"
 xmlns:xlink="http://www.w3.org/1999/xlink"
 xmlns:xodm="http://www.corel.com/coreldraw/odm/2003">
 <defs>
  <style type="text/css">
   <![CDATA[
    .str1 {stroke:#2D2A2B;stroke-width:6.74;stroke-miterlimit:2.61313}
    .str0 {stroke:#E6E7E8;stroke-width:7.02;stroke-miterlimit:2.61313}
    .str2 {stroke:#2D2A2B;stroke-width:7.02;stroke-miterlimit:2.61313}
    .fil1 {fill:none}
    .fil0 {fill:#E6E7E8}
    .fil2 {fill:#2D2A2B}
   ]]>
  </style>
 </defs>
 <g id="Layer_x0020_1">
  <metadata id="CorelCorpID_0Corel-Layer"/>
  <path class="fil0 str0" d="M316.84 3.51c-173.05,0 -313.33,140.28 -313.33,313.33 0,173.05 140.28,313.33 313.33,313.33 173.05,0 313.33,-140.28 313.33,-313.33 0,-173.05 -140.28,-313.33 -313.33,-313.33z"/>
  <path class="fil1 str1" d="M90.72 338.31c8.85,86.69 67.89,160.06 150.69,187.24 115.78,38.01 240.45,-25.04 278.46,-140.82 38.01,-115.78 -25.04,-240.45 -140.82,-278.46 -14.65,-4.81 -29.76,-8.07 -45.09,-9.73"/>
  <path class="fil1 str1" d="M328.4 130.86c2.13,310.78 2.13,310.78 2.13,310.78l-129.85 -2.13"/>
  <path class="fil1 str1" d="M262.89 336.86c-175.06,1.46 -175.06,1.46 -175.06,1.46"/>
  <path class="fil2 str2" d="M390.3 170.82c-11.17,0 -20.22,9.05 -20.22,20.22 0,11.17 9.05,20.22 20.22,20.22 11.17,0 20.22,-9.05 20.22,-20.22 0,-11.17 -9.05,-20.22 -20.22,-20.22z"/>
 </g>
</svg>
