<?xml version="1.0" encoding="UTF-8"?>
<!DOCTYPE svg PUBLIC "-//W3C//DTD SVG 1.1//EN" "http://www.w3.org/Graphics/SVG/1.1/DTD/svg11.dtd">
<!-- Creator: CorelDRAW -->
<svg xmlns="http://www.w3.org/2000/svg" xml:space="preserve" width="0.616551in" height="0.618335in" version="1.1" style="shape-rendering:geometricPrecision; text-rendering:geometricPrecision; image-rendering:optimizeQuality; fill-rule:evenodd; clip-rule:evenodd"
viewBox="0 0 616.43 618.22"
 xmlns:xlink="http://www.w3.org/1999/xlink"
 xmlns:xodm="http://www.corel.com/coreldraw/odm/2003">
 <defs>
  <style type="text/css">
   <![CDATA[
    .fil0 {fill:#00A755}
   ]]>
  </style>
 </defs>
 <g id="Layer_x0020_1">
  <metadata id="CorelCorpID_0Corel-Layer"/>
  <g id="_372593576">
   <path class="fil0" d="M77.2 509.48c-47.69,-54.67 -77.2,-125.2 -77.2,-200.22 0,-108.83 52.79,-200.82 133.36,-255.43l0 396.75 -56.17 58.9z"/>
   <path class="fil0" d="M561.62 488.82c-54.94,78.34 -145.69,129.4 -252.66,129.4 -69.41,0 -134.93,-25.25 -187.63,-66.77l59.73 -62.63 380.56 0z"/>
   <path class="fil0" d="M194.29 386.7l0 -356.84c-0.03,-2.69 -0.37,-5.24 -0.97,-7.62 26.61,-10.48 55.06,-17.45 84.76,-20.4l-0.91 297.97 -82.87 86.89z"/>
   <path class="fil0" d="M616.43 339.6c-3.22,33.03 -11.42,64.52 -23.9,93.67 -5.07,-3.51 -10.97,-5.29 -17.29,-5.37l-336.07 0 83.64 -87.71 293.62 -0.59z"/>
   <polygon class="fil0" points="336.54,4.57 421.01,4.57 421.01,288.48 336.54,288.48 "/>
   <polygon class="fil0" points="528.45,0 612.93,0 612.93,283.91 528.45,283.91 "/>
   <polygon class="fil0" points="371.24,182.42 372.23,104.54 570.69,108.93 569.7,186.81 "/>
  </g>
 </g>
</svg>
