<?xml version="1.0" encoding="UTF-8"?>
<!DOCTYPE svg PUBLIC "-//W3C//DTD SVG 1.1//EN" "http://www.w3.org/Graphics/SVG/1.1/DTD/svg11.dtd">
<!-- Creator: CorelDRAW -->
<svg xmlns="http://www.w3.org/2000/svg" xml:space="preserve" width="0.95028in" height="0.142606in" version="1.1" style="shape-rendering:geometricPrecision; text-rendering:geometricPrecision; image-rendering:optimizeQuality; fill-rule:evenodd; clip-rule:evenodd"
viewBox="0 0 971.8 145.84"
 xmlns:xlink="http://www.w3.org/1999/xlink"
 xmlns:xodm="http://www.corel.com/coreldraw/odm/2003">
 <defs>
  <style type="text/css">
   <![CDATA[
    .str0 {stroke:#E6255D;stroke-width:14.2;stroke-miterlimit:2.61313}
    .fil9 {fill:url(#id0)}
    .fil1 {fill:url(#id1);fill-rule:nonzero}
    .fil2 {fill:url(#id2);fill-rule:nonzero}
    .fil8 {fill:url(#id3);fill-rule:nonzero}
    .fil7 {fill:url(#id4);fill-rule:nonzero}
    .fil4 {fill:url(#id5);fill-rule:nonzero}
    .fil0 {fill:url(#id6);fill-rule:nonzero}
    .fil6 {fill:url(#id7);fill-rule:nonzero}
    .fil5 {fill:url(#id8);fill-rule:nonzero}
    .fil3 {fill:url(#id9);fill-rule:nonzero}
   ]]>
  </style>
  <linearGradient id="id0" gradientUnits="userSpaceOnUse" x1="753.57" y1="63.93" x2="1079.39" y2="53.51">
   <stop offset="0" style="stop-opacity:1; stop-color:#ED282E"/>
   <stop offset="0.639216" style="stop-opacity:1; stop-color:#851496"/>
   <stop offset="1" style="stop-opacity:1; stop-color:#1C00FF"/>
  </linearGradient>
  <linearGradient id="id1" gradientUnits="userSpaceOnUse" x1="1047.04" y1="70.64" x2="-74.77" y2="89.87">
   <stop offset="0" style="stop-opacity:1; stop-color:#363894"/>
   <stop offset="0.568627" style="stop-opacity:1; stop-color:#922F70"/>
   <stop offset="1" style="stop-opacity:1; stop-color:#EE254B"/>
  </linearGradient>
  <linearGradient id="id2" gradientUnits="userSpaceOnUse" xlink:href="#id1" x1="1046.77" y1="71.1" x2="-76.28" y2="90.78">
  </linearGradient>
  <linearGradient id="id3" gradientUnits="userSpaceOnUse" xlink:href="#id1" x1="1027.63" y1="74.35" x2="-44.06" y2="93.6">
  </linearGradient>
  <linearGradient id="id4" gradientUnits="userSpaceOnUse" xlink:href="#id1" x1="1040.67" y1="70.79" x2="-72.23" y2="89.72">
  </linearGradient>
  <linearGradient id="id5" gradientUnits="userSpaceOnUse" xlink:href="#id1" x1="1039.94" y1="70.79" x2="-72.96" y2="89.72">
  </linearGradient>
  <linearGradient id="id6" gradientUnits="userSpaceOnUse" xlink:href="#id1" x1="1049.04" y1="72.33" x2="-72.32" y2="91.97">
  </linearGradient>
  <linearGradient id="id7" gradientUnits="userSpaceOnUse" xlink:href="#id1" x1="1018.07" y1="72.87" x2="-47.88" y2="90.95">
  </linearGradient>
  <linearGradient id="id8" gradientUnits="userSpaceOnUse" xlink:href="#id1" x1="1067.36" y1="69.99" x2="-91.64" y2="90.52">
  </linearGradient>
  <linearGradient id="id9" gradientUnits="userSpaceOnUse" xlink:href="#id1" x1="975.2" y1="72.5" x2="-41.33" y2="88.54">
  </linearGradient>
 </defs>
 <g id="Layer_x0020_1">
  <metadata id="CorelCorpID_0Corel-Layer"/>
  <g id="_905083768">
   <path class="fil0" d="M-0 96.64l26.91 0c1.01,7.25 3.99,12.63 8.91,16.16 4.91,3.5 12.01,5.25 21.31,5.25 7.93,0 13.89,-1.41 17.91,-4.21 4.03,-2.83 6.05,-7.01 6.05,-12.53 0,-8.02 -11.55,-14.68 -34.65,-19.97l-0.83 -0.19c-0.58,-0.12 -1.5,-0.34 -2.76,-0.62 -12.38,-2.7 -21.2,-5.74 -26.48,-9.09 -4.67,-3.01 -8.23,-7.03 -10.69,-12.1 -2.46,-5.07 -3.68,-11.06 -3.68,-17.97 0,-12.9 4.36,-22.79 13.11,-29.64 8.76,-6.88 21.44,-10.32 38,-10.32 15.45,0 27.55,3.66 36.31,11 8.72,7.31 13.33,17.63 13.79,30.97l-26.17 0c-0.49,-6.42 -2.95,-11.33 -7.37,-14.68 -4.45,-3.35 -10.78,-5.04 -18.98,-5.04 -7.15,0 -12.65,1.38 -16.52,4.18 -3.87,2.8 -5.81,6.76 -5.81,11.92 0,7.03 7.52,12.28 22.57,15.75 4.09,0.95 7.28,1.72 9.55,2.24 9.67,2.46 16.53,4.39 20.55,5.78 4.05,1.38 7.59,2.89 10.6,4.57 5.37,3.01 9.43,6.97 12.13,11.92 2.7,4.94 4.05,10.87 4.05,17.78 0,13.79 -4.64,24.51 -13.95,32.1 -9.31,7.59 -22.42,11.37 -39.35,11.37 -16.68,0 -29.73,-3.87 -39.23,-11.61 -9.49,-7.74 -14.59,-18.74 -15.3,-33.02z"/>
   <path class="fil1" d="M134.94 100.32c0,7.4 1.52,13.09 4.55,17.1 3.03,4.01 7.35,6.02 12.95,6.02 5.53,0 9.8,-2.01 12.83,-6.02 3.01,-4.01 4.53,-9.71 4.53,-17.1 0,-7.32 -1.49,-12.99 -4.5,-16.98 -3.01,-3.99 -7.28,-5.97 -12.86,-5.97 -5.6,0 -9.92,1.98 -12.95,5.97 -3.03,3.99 -4.55,9.66 -4.55,16.98zm-20.15 0c0,-12.34 3.36,-22.05 10.05,-29.11 6.7,-7.07 15.89,-10.59 27.6,-10.59 11.66,0 20.86,3.52 27.58,10.59 6.72,7.07 10.08,16.77 10.08,29.11 0,12.39 -3.36,22.12 -10.08,29.19 -6.72,7.07 -15.91,10.59 -27.58,10.59 -11.71,0 -20.9,-3.52 -27.6,-10.59 -6.7,-7.07 -10.05,-16.8 -10.05,-29.19z"/>
   <path class="fil2" d="M270.29 63.28l0 74.3 -19.48 0 0 -8.82c-2.82,3.62 -6.11,6.3 -9.87,8.09 -3.76,1.8 -8,2.71 -12.69,2.71 -8.14,0 -14.25,-2.15 -18.34,-6.42 -4.08,-4.29 -6.14,-10.71 -6.14,-19.22l0 -50.65 19.9 0 0 44.91c0,5.29 0.89,9.05 2.66,11.31 1.78,2.26 4.71,3.38 8.82,3.38 4.64,0 8.35,-1.4 11.1,-4.2 2.75,-2.8 4.13,-6.62 4.13,-11.45l0 -43.95 19.9 0z"/>
   <path class="fil3" d="M289.57 137.58l0 -74.3 18.45 0 0 12.71c2.59,-5.11 5.62,-8.85 9.1,-11.25 3.45,-2.38 7.58,-3.57 12.36,-3.57 0.77,0 1.38,0 1.82,0.02 0.42,0.02 0.77,0.07 1.05,0.09l0.07 20.18 -6.63 0c-5.44,0 -9.52,1.4 -12.25,4.22 -2.73,2.82 -4.08,7.02 -4.08,12.57l0 39.31 -19.9 0z"/>
   <path class="fil4" d="M388.97 109.56l19.62 0c-0.82,9.43 -4.27,16.87 -10.34,22.35 -6.04,5.46 -13.83,8.19 -23.38,8.19 -10.8,0 -19.25,-3.52 -25.38,-10.54 -6.14,-7.05 -9.19,-16.8 -9.19,-29.23 0,-12.39 3.12,-22.12 9.4,-29.14 6.28,-7.05 14.88,-10.57 25.87,-10.57 9.61,0 17.31,2.54 23.12,7.65 5.81,5.11 9.07,12.2 9.75,21.32l-19.76 0c-0.54,-3.97 -1.94,-7 -4.18,-9.07 -2.21,-2.1 -5.15,-3.15 -8.79,-3.15 -4.92,0 -8.61,1.94 -11.06,5.81 -2.43,3.87 -3.64,9.68 -3.64,17.43 0,7.16 1.26,12.67 3.78,16.52 2.54,3.85 6.18,5.76 10.92,5.76 3.68,0 6.65,-1.12 8.87,-3.33 2.24,-2.24 3.71,-5.58 4.38,-9.98z"/>
   <path class="fil5" d="M467.72 115.02l19.83 0c-2.01,7.84 -6.04,13.97 -12.13,18.43 -6.09,4.43 -13.51,6.65 -22.26,6.65 -10.75,0 -19.27,-3.62 -25.57,-10.83 -6.28,-7.21 -9.43,-17.01 -9.43,-29.35 0,-12.15 3.1,-21.77 9.28,-28.79 6.2,-7.02 14.68,-10.52 25.43,-10.52 11.41,0 20.2,3.45 26.38,10.36 6.21,6.9 9.31,16.72 9.31,29.49 0,1.42 -0.02,2.47 -0.04,3.17 -0.02,0.72 -0.07,1.4 -0.17,2.03l-49.62 0c0.26,5.83 1.68,10.22 4.27,13.18 2.56,2.96 6.28,4.46 11.1,4.46 3.43,0 6.23,-0.68 8.4,-2.03 2.19,-1.33 3.92,-3.43 5.2,-6.25zm-28.98 -22.42l29.26 0c-0.19,-5.02 -1.52,-8.82 -4.01,-11.43 -2.47,-2.64 -6.04,-3.94 -10.69,-3.94 -4.34,0 -7.75,1.33 -10.22,3.97 -2.5,2.63 -3.94,6.44 -4.34,11.41z"/>
   <path class="fil6" d="M554.11 30.87l-18.37 58.14 36.8 0 -18.43 -58.14zm-15.85 -27.35l31.52 0 47.77 136.57 -28.6 0 -9 -28.11 -51.39 0 -8.72 28.11 -28.72 0 47.15 -136.57z"/>
   <path class="fil7" d="M671.09 109.56l19.62 0c-0.82,9.43 -4.27,16.87 -10.34,22.35 -6.04,5.46 -13.83,8.19 -23.38,8.19 -10.8,0 -19.25,-3.52 -25.38,-10.54 -6.14,-7.05 -9.19,-16.8 -9.19,-29.23 0,-12.39 3.12,-22.12 9.4,-29.14 6.28,-7.05 14.88,-10.57 25.87,-10.57 9.61,0 17.31,2.54 23.12,7.65 5.81,5.11 9.07,12.2 9.75,21.32l-19.76 0c-0.54,-3.97 -1.94,-7 -4.18,-9.07 -2.21,-2.1 -5.15,-3.15 -8.79,-3.15 -4.92,0 -8.61,1.94 -11.06,5.81 -2.43,3.87 -3.64,9.68 -3.64,17.43 0,7.16 1.26,12.67 3.78,16.52 2.54,3.85 6.18,5.76 10.92,5.76 3.68,0 6.65,-1.12 8.87,-3.33 2.24,-2.24 3.71,-5.58 4.38,-9.98z"/>
   <path class="fil8" d="M737.05 138.12c-1.82,0.05 -3.99,0.14 -6.53,0.26 -2.52,0.12 -4.13,0.17 -4.8,0.17 -7.61,0 -12.81,-1.43 -15.63,-4.27 -2.8,-2.85 -4.2,-8.47 -4.2,-16.84l0 -40.2 -9.84 0 0 -13.95 9.84 0 0 -20.3 19.69 0 0 20.3 11.48 0 0 13.95 -11.48 0 0 41.15c0,1.96 0.44,3.25 1.3,3.85 0.87,0.63 2.64,0.93 5.32,0.93l4.85 0 0 14.95z"/>
   <path class="fil9 str0" d="M844.79 73.05c0,-29.51 23.92,-53.44 53.44,-53.44 29.51,0 53.44,23.92 53.44,53.44 0,29.51 -23.92,53.44 -53.44,53.44 -29.51,0 -53.44,-23.92 -53.44,-53.44zm119.9 -0.14c0,-36.35 -29.47,-65.82 -65.82,-65.82 -36.35,0 -65.82,29.47 -65.82,65.82 0,36.35 29.47,65.82 65.82,65.82 36.35,0 65.82,-29.47 65.82,-65.82z"/>
  </g>
 </g>
</svg>
