<?xml version="1.0" encoding="UTF-8"?>
<!DOCTYPE svg PUBLIC "-//W3C//DTD SVG 1.1//EN" "http://www.w3.org/Graphics/SVG/1.1/DTD/svg11.dtd">
<!-- Creator: CorelDRAW -->
<svg xmlns="http://www.w3.org/2000/svg" xml:space="preserve" width="0.529445in" height="0.632654in" version="1.1" style="shape-rendering:geometricPrecision; text-rendering:geometricPrecision; image-rendering:optimizeQuality; fill-rule:evenodd; clip-rule:evenodd"
viewBox="0 0 472.03 564.05"
 xmlns:xlink="http://www.w3.org/1999/xlink"
 xmlns:xodm="http://www.corel.com/coreldraw/odm/2003">
 <defs>
  <style type="text/css">
   <![CDATA[
    .str0 {stroke:#ED282E;stroke-width:6.19;stroke-miterlimit:2.61313}
    .str1 {stroke:#00AFEF;stroke-width:2.67;stroke-miterlimit:2.61313}
    .fil0 {fill:#ED282E}
    .fil1 {fill:#00AFEF;fill-rule:nonzero}
   ]]>
  </style>
 </defs>
 <g id="Layer_x0020_1">
  <metadata id="CorelCorpID_0Corel-Layer"/>
  <g id="_478382904">
   <path class="fil0 str0" d="M236.1 1.03l58.51 165.56 175.54 4.49 -139.37 106.81 49.97 168.33 -144.65 -99.55 -161.37 95.68c70.43,-126.92 171.5,-216.83 313.84,-256.86 -104.98,-4.54 -199.44,22.78 -268.46,90.16l-118.06 -104.57 175.54 -4.49 58.51 -165.56z"/>
   <path class="fil1 str1" d="M22.69 541.83l11.72 0c0.44,3.39 1.74,5.91 3.88,7.56 2.14,1.64 5.23,2.46 9.28,2.46 3.45,0 6.04,-0.66 7.8,-1.97 1.76,-1.32 2.64,-3.27 2.64,-5.86 0,-3.75 -5.03,-6.87 -15.09,-9.34l-0.36 -0.09c-0.25,-0.06 -0.66,-0.16 -1.2,-0.29 -5.39,-1.26 -9.23,-2.69 -11.53,-4.25 -2.03,-1.41 -3.58,-3.29 -4.65,-5.66 -1.07,-2.37 -1.6,-5.17 -1.6,-8.41 0,-6.03 1.9,-10.66 5.71,-13.87 3.81,-3.22 9.34,-4.83 16.55,-4.83 6.73,0 11.99,1.71 15.81,5.14 3.8,3.42 5.81,8.25 6.01,14.49l-11.4 0c-0.21,-3 -1.28,-5.3 -3.2,-6.87 -1.94,-1.57 -4.7,-2.36 -8.27,-2.36 -3.12,0 -5.51,0.65 -7.2,1.96 -1.68,1.31 -2.53,3.16 -2.53,5.57 0,3.29 3.27,5.75 9.83,7.37 1.78,0.45 3.17,0.81 4.16,1.05 4.21,1.15 7.19,2.06 8.95,2.7 1.76,0.65 3.3,1.35 4.61,2.14 2.34,1.41 4.1,3.26 5.28,5.58 1.18,2.31 1.77,5.09 1.77,8.32 0,6.45 -2.02,11.47 -6.07,15.02 -4.05,3.55 -9.77,5.32 -17.13,5.32 -7.26,0 -12.95,-1.81 -17.08,-5.43 -4.13,-3.62 -6.35,-8.77 -6.66,-15.45zm68.13 19.16l0 -50.95 -17.12 0 0 -11.06 45.99 0 0 11.06 -17 0 0 50.95 -11.87 0zm54.34 -49.59l-8 26.4 16.02 0 -8.03 -26.4zm-6.9 -12.42l13.72 0 20.8 62.01 -12.45 0 -3.92 -12.76 -22.37 0 -3.8 12.76 -12.5 0 20.53 -62.01zm52.35 27.1l13.95 0c3.03,0 5.25,-0.66 6.67,-1.97 1.43,-1.32 2.14,-3.4 2.14,-6.23 0,-2.69 -0.69,-4.73 -2.07,-6.13 -1.37,-1.39 -3.45,-2.08 -6.19,-2.08l-14.5 0 0 16.41zm-11.88 34.91l0 -62.01 27.98 0c6.3,0 10.95,1.44 13.99,4.32 3.04,2.89 4.55,7.31 4.55,13.26 0,3.79 -0.73,6.96 -2.22,9.47 -1.47,2.53 -3.6,4.25 -6.37,5.19 2.52,0.95 4.29,2.4 5.35,4.37 1.05,1.97 1.67,5.03 1.81,9.18l0.24 7.33c0,0.06 0,0.14 0,0.24 0.08,3.71 0.83,5.95 2.24,6.74l0 1.9 -13.02 0c-0.41,-0.88 -0.73,-1.94 -0.95,-3.22 -0.23,-1.28 -0.36,-2.8 -0.41,-4.57l-0.16 -6.53c-0.13,-3.84 -0.8,-6.44 -2.02,-7.79 -1.21,-1.35 -3.39,-2.03 -6.56,-2.03l-12.57 0 0 24.13 -11.88 0zm92.04 -33.3l11.47 0c3.12,0 5.38,-0.71 6.78,-2.13 1.4,-1.42 2.11,-3.69 2.11,-6.84 0,-2.94 -0.69,-5.19 -2.07,-6.7 -1.38,-1.51 -3.45,-2.27 -6.19,-2.27l-12.1 0 0 17.94zm-0.08 11.24l0 22.06 -11.88 0 0 -62.01 25.67 0c6.05,0 10.66,1.7 13.77,5.07 3.12,3.38 4.68,8.34 4.68,14.87 0,6.4 -1.53,11.34 -4.59,14.8 -3.05,3.46 -7.41,5.2 -13.08,5.2l-14.57 0zm41.63 22.06l0 -62.01 11.88 0 0 50.56 28.16 0 0 11.45 -40.04 0zm44.79 -62.18l11.98 0 0 38.9c0,4.8 0.9,8.31 2.67,10.51 1.78,2.2 4.59,3.31 8.45,3.31 3.92,0 6.78,-1.09 8.58,-3.29 1.78,-2.18 2.67,-5.69 2.67,-10.52l0 -38.9 11.87 0 0 40.3c0,7.6 -1.98,13.44 -5.94,17.5 -3.96,4.07 -9.66,6.11 -17.1,6.11 -7.49,0 -13.23,-2.03 -17.21,-6.08 -3.99,-4.06 -5.98,-9.9 -5.98,-17.53l0 -40.3zm55.19 43.02l11.72 0c0.44,3.39 1.74,5.91 3.88,7.56 2.14,1.64 5.23,2.46 9.28,2.46 3.45,0 6.04,-0.66 7.8,-1.97 1.76,-1.32 2.64,-3.27 2.64,-5.86 0,-3.75 -5.03,-6.87 -15.09,-9.34l-0.36 -0.09c-0.25,-0.06 -0.66,-0.16 -1.2,-0.29 -5.39,-1.26 -9.23,-2.69 -11.53,-4.25 -2.03,-1.41 -3.58,-3.29 -4.65,-5.66 -1.07,-2.37 -1.61,-5.17 -1.61,-8.41 0,-6.03 1.9,-10.66 5.71,-13.87 3.81,-3.22 9.34,-4.83 16.55,-4.83 6.73,0 11.99,1.71 15.81,5.14 3.8,3.42 5.81,8.25 6.01,14.49l-11.39 0c-0.21,-3 -1.28,-5.3 -3.21,-6.87 -1.94,-1.57 -4.7,-2.36 -8.27,-2.36 -3.12,0 -5.51,0.65 -7.2,1.96 -1.68,1.31 -2.53,3.16 -2.53,5.57 0,3.29 3.27,5.75 9.83,7.37 1.78,0.45 3.17,0.81 4.16,1.05 4.21,1.15 7.19,2.06 8.95,2.7 1.76,0.65 3.3,1.35 4.61,2.14 2.34,1.41 4.1,3.26 5.28,5.58 1.18,2.31 1.77,5.09 1.77,8.32 0,6.45 -2.02,11.47 -6.07,15.02 -4.05,3.55 -9.77,5.32 -17.13,5.32 -7.26,0 -12.95,-1.81 -17.08,-5.43 -4.13,-3.62 -6.35,-8.77 -6.66,-15.45z"/>
  </g>
 </g>
</svg>
